<svg width="50" height="50" viewBox="0 0 50 50" fill="none" xmlns="http://www.w3.org/2000/svg">
<path d="M1.28207 10.2564C0.573728 10.2564 0 10.8301 0 11.5385C0 12.2468 0.573728 12.8205 1.28207 12.8205C1.99042 12.8205 2.56415 12.2468 2.56415 11.5385C2.56415 10.8301 1.99042 10.2564 1.28207 10.2564Z" fill="#78A0CF"/>
<path d="M42.309 0.641052C41.9558 0.641052 41.668 0.928873 41.668 1.28208C41.668 1.63528 41.9558 1.9231 42.309 1.9231C42.6622 1.9231 42.95 1.63528 42.95 1.28208C42.95 0.928873 42.6622 0.641052 42.309 0.641052Z" fill="#F1BC19"/>
<path d="M25.0001 1.2821C11.9012 1.2821 1.28174 11.9013 1.28174 25C1.28174 38.0988 11.9012 48.718 25.0001 48.718C38.0991 48.718 48.7185 38.0988 48.7185 25C48.7185 11.9013 38.0991 1.2821 25.0001 1.2821Z" fill="#CEE1F4"/>
<path d="M46.1545 0C44.7371 0 43.5903 1.14679 43.5903 2.5641C43.5903 3.98141 44.7371 5.1282 46.1545 5.1282C47.5718 5.1282 48.7186 3.98141 48.7186 2.5641C48.7186 1.14679 47.5718 0 46.1545 0Z" fill="#F1BC19"/>
<path d="M48.7181 7.05127C48.0098 7.05127 47.436 7.62499 47.436 8.33332C47.436 9.04165 48.0098 9.61537 48.7181 9.61537C49.4265 9.61537 50.0002 9.04165 50.0002 8.33332C50.0002 7.62499 49.4265 7.05127 48.7181 7.05127Z" fill="#78A0CF"/>
<path d="M44.8726 40.3845C44.1643 40.3845 43.5905 40.9583 43.5905 41.6666C43.5905 42.3749 44.1643 42.9486 44.8726 42.9486C45.581 42.9486 46.1547 42.3749 46.1547 41.6666C46.1547 40.9583 45.581 40.3845 44.8726 40.3845ZM2.56415 30.7692C1.14682 30.7692 0 31.916 0 33.3333C0 34.7506 1.14682 35.8974 2.56415 35.8974C3.98148 35.8974 5.1283 34.7506 5.1283 33.3333C5.1283 31.916 3.98148 30.7692 2.56415 30.7692Z" fill="#FBCD59"/>
<path d="M8.97397 47.4359C8.26562 47.4359 7.69189 48.0096 7.69189 48.718C7.69189 49.4263 8.26562 50 8.97397 50C9.68231 50 10.256 49.4263 10.256 48.718C10.256 48.0096 9.68231 47.4359 8.97397 47.4359Z" fill="#78A0CF"/>
<path d="M4.16753 19.8717C3.28354 19.8717 2.56494 20.5903 2.56494 21.4743C2.56494 22.3582 3.28354 23.0768 4.16753 23.0768C5.05152 23.0768 5.77013 22.3582 5.77013 21.4743C5.77013 20.5903 5.05152 19.8717 4.16753 19.8717Z" fill="white"/>
<path d="M6.41057 34.6153C6.05736 34.6153 5.76953 34.9031 5.76953 35.2563C5.76953 35.6095 6.05736 35.8973 6.41057 35.8973C6.76378 35.8973 7.05161 35.6095 7.05161 35.2563C7.05161 34.9031 6.76378 34.6153 6.41057 34.6153Z" fill="#F1BC19"/>
<path d="M45.5136 16.6666C45.1604 16.6666 44.8726 16.9544 44.8726 17.3077C44.8726 17.6609 45.1604 17.9487 45.5136 17.9487C45.8668 17.9487 46.1546 17.6609 46.1546 17.3077C46.1546 16.9544 45.8668 16.6666 45.5136 16.6666Z" fill="white"/>
<path d="M38.3829 39.7391H38.1136V39.3416L36.4982 36.8545L33.7866 32.6878L36.5431 18.9122L38.0303 11.457L38.4598 11.1942L42.947 18.3673C43.0304 18.5083 43.0624 18.675 43.0304 18.8352L39.0111 39.2198C38.9534 39.5211 38.6906 39.7391 38.3829 39.7391Z" fill="#836F61"/>
<path d="M36.4985 36.8544L38.1139 39.3416V39.739H30.2676C30.0625 39.739 29.8637 39.6365 29.7484 39.4698L26.8509 35.4121L27.2932 35.0916L25.7739 32.6877H33.7869L36.4985 36.8544Z" fill="#BD977C"/>
<path d="M28.0174 23.3929L26.1841 30.9249H26.1713L24.0879 27.957V27.8801L25.293 23.3929H28.0174Z" fill="#836F61"/>
<path d="M25.7735 32.6878L27.2928 35.0916L26.8504 35.4121L26.735 35.2519H24.2478V34.8544L20.6516 29.8031H20.6452L19.2798 27.8801H24.0876V27.957L26.1709 30.9249H26.1838L25.7735 32.6108V32.6878Z" fill="#BD977C"/>
<path d="M24.248 34.8544V35.2519H24.1711L22.4082 39.348C22.3505 39.4954 22.2352 39.6108 22.0941 39.6749L21.9275 39.4185L15.5171 32.6878L16.1709 30.4506L16.921 27.8929L18.2415 23.3929H20.6454L19.28 27.8801L20.6454 29.8031H20.6518L24.248 34.8544Z" fill="#836F61"/>
<path d="M15.5176 32.6877L21.9279 39.4185L22.0946 39.6749C22.0113 39.7198 21.9215 39.739 21.8254 39.739H14.1778C14.0047 39.739 13.8445 39.6685 13.7227 39.5531L7.18408 33.0083L7.5046 32.6877H15.5176Z" fill="#BD977C"/>
<path d="M7.50423 32.6879L7.18371 33.0084L7.13884 32.9636C6.96576 32.7969 6.90806 32.5469 6.97858 32.3161L9.2799 25.2072L9.66452 25.3354H12.953L12.1517 27.8802L11.3505 30.4443H16.1582L16.1711 30.4507L15.5172 32.6879H7.50423Z" fill="#C0D078"/>
<path d="M16.9217 27.8929L16.1717 30.4506L16.1589 30.4442H11.3511L12.1524 27.8801H16.8768L16.9217 27.8929Z" fill="#C0D078"/>
<path d="M21.7672 10.8929V11.2903L20.4851 15.7006H13.0299L12.4209 15.5019L13.7671 11.3352C13.8504 11.0724 14.1004 10.8929 14.3761 10.8929H21.7672Z" fill="#C0D078"/>
<path d="M21.9277 10.8929C22.1264 10.8929 22.3187 10.989 22.4405 11.1493L26.0944 16.0211L26.5752 16.3416L25.8829 18.8929L25.5303 20.1878H21.2866L22.5687 15.7006H20.4854L21.7674 11.2903V10.8929H21.9277Z" fill="#836F61"/>
<path d="M33.2222 15.0595L32.4209 18.9057H25.9336L25.8823 18.8929L26.5746 16.3416L26.0939 16.0211L26.5554 15.0916C26.6644 14.8736 26.8823 14.739 27.1259 14.739H29.1324L29.5362 15.0595H33.2222Z" fill="#C0D078"/>
<path d="M37.915 10.8929C38.1394 10.8929 38.3445 11.0083 38.4599 11.1942L38.0304 11.457L36.5432 18.9121L36.5112 18.9057H32.4213L33.2226 15.0595H29.5367L29.1328 14.739L29.8315 11.3993C29.8956 11.1044 30.1521 10.8929 30.4598 10.8929H37.915Z" fill="#C0D078"/>
<path d="M36.5441 18.9122L33.7876 32.6878H25.7746V32.6109L26.1849 30.925L28.0183 23.393H25.2939L24.0887 27.8802H19.2809L20.6464 23.393H18.2425L16.9219 27.893L16.8771 27.8802H12.1526L12.9539 25.3353H9.66538L9.28076 25.2071L12.4218 15.502L13.0308 15.7007H20.4861H22.5695L21.2874 20.1878H25.5311L25.8836 18.893L25.9349 18.9058H32.4222H36.512L36.5441 18.9122Z" fill="#C0D078"/>
<path d="M37.7836 11.7903L42.1394 18.7602L38.1842 38.8416H30.4091L27.4725 34.7301C27.3039 34.4942 27.0321 34.3544 26.7423 34.3544H24.1782C23.8192 34.3544 23.4948 34.5685 23.3532 34.8986L21.6634 38.8416H14.2934L7.89328 32.4416L14.5748 11.7903H21.8064L25.3833 16.5595C25.5539 16.7865 25.8205 16.9185 26.1013 16.9185C26.1282 16.9185 26.1551 16.9172 26.1821 16.9147C26.4917 16.8865 26.7648 16.7006 26.9039 16.4224L27.2968 15.6365H29.1411C29.5661 15.6365 29.9321 15.339 30.0193 14.923L30.6757 11.7903H37.7836ZM37.9259 10.8929H30.468C30.1648 10.8929 29.9027 11.1057 29.8405 11.4025L29.1417 14.739H27.1385C26.8955 14.739 26.6737 14.8762 26.5654 15.0935L26.1013 16.0211L22.4474 11.1493C22.3262 10.9878 22.1365 10.8929 21.9346 10.8929H14.3883C14.1101 10.8929 13.8639 11.0724 13.7786 11.3365L6.9907 32.3147C6.91634 32.5435 6.97724 32.7948 7.14712 32.9653L13.7331 39.5512C13.8543 39.6717 14.0171 39.739 14.187 39.739H21.832C22.0884 39.739 22.3205 39.5865 22.4211 39.3506L24.1782 35.2518H26.7423L29.7559 39.4704C29.8764 39.639 30.0706 39.739 30.2777 39.739H38.3951C38.7015 39.739 38.965 39.5224 39.024 39.2217L43.0401 18.8339C43.0715 18.6743 43.0407 18.5083 42.9548 18.3704L38.4695 11.1942C38.3522 11.007 38.147 10.8929 37.9259 10.8929Z" fill="#472B29"/>
<path d="M21.9334 39.7391C21.8488 39.7391 21.7641 39.7058 21.7013 39.6398L15.291 32.909C15.1692 32.7808 15.1736 32.5782 15.3025 32.4558C15.4307 32.3346 15.6333 32.3378 15.7557 32.4673L22.1661 39.1981C22.2879 39.3263 22.2834 39.5289 22.1545 39.6513C22.0924 39.7096 22.0129 39.7391 21.9334 39.7391Z" fill="#472B29"/>
<path d="M11.1163 33.0083H7.51046C7.33353 33.0083 7.18994 32.8647 7.18994 32.6878C7.18994 32.5109 7.33353 32.3673 7.51046 32.3673H11.1163C11.2932 32.3673 11.4368 32.5109 11.4368 32.6878C11.4368 32.8647 11.2932 33.0083 11.1163 33.0083Z" fill="#472B29"/>
<path d="M15.603 33.0083H13.6799C13.503 33.0083 13.3594 32.8647 13.3594 32.6878C13.3594 32.5109 13.503 32.3673 13.6799 32.3673H15.603C15.7799 32.3673 15.9235 32.5109 15.9235 32.6878C15.9235 32.8647 15.7799 33.0083 15.603 33.0083Z" fill="#472B29"/>
<path d="M16.8847 28.2007H14.3205C14.1436 28.2007 14 28.0571 14 27.8801C14 27.7032 14.1436 27.5596 14.3205 27.5596H16.8847C17.0616 27.5596 17.2052 27.7032 17.2052 27.8801C17.2052 28.0571 17.0616 28.2007 16.8847 28.2007Z" fill="#472B29"/>
<path d="M25.5395 20.5083H21.2927C21.192 20.5083 21.0972 20.4608 21.0369 20.3807C20.9766 20.3006 20.9568 20.1961 20.9843 20.0999L22.1497 16.0211H17.5266C17.3496 16.0211 17.2061 15.8775 17.2061 15.7006C17.2061 15.5237 17.3496 15.3801 17.5266 15.3801H22.5747C22.6754 15.3801 22.7703 15.4275 22.8305 15.5076C22.8908 15.5878 22.9106 15.6922 22.8831 15.7884L21.7177 19.8672H25.294L26.2716 16.2576C26.3178 16.0865 26.4928 15.9846 26.6646 16.032C26.8357 16.0781 26.9364 16.2544 26.8902 16.4249L25.8485 20.2711C25.8107 20.4115 25.6844 20.5083 25.5395 20.5083Z" fill="#472B29"/>
<path d="M33.2321 15.38H29.5461C29.3692 15.38 29.2256 15.2364 29.2256 15.0595C29.2256 14.8826 29.3692 14.739 29.5461 14.739H33.2321C33.409 14.739 33.5526 14.8826 33.5526 15.0595C33.5526 15.2364 33.409 15.38 33.2321 15.38Z" fill="#472B29"/>
<path d="M29.0657 19.2262H25.9406C25.7637 19.2262 25.6201 19.0826 25.6201 18.9057C25.6201 18.7288 25.7637 18.5852 25.9406 18.5852H29.0657C29.2426 18.5852 29.3862 18.7288 29.3862 18.9057C29.3862 19.0826 29.2426 19.2262 29.0657 19.2262Z" fill="#472B29"/>
<path d="M36.4368 19.2262H30.988C30.8111 19.2262 30.6675 19.0826 30.6675 18.9057C30.6675 18.7288 30.8111 18.5852 30.988 18.5852H36.4368C36.6137 18.5852 36.7573 18.7288 36.7573 18.9057C36.7573 19.0826 36.6137 19.2262 36.4368 19.2262Z" fill="#472B29"/>
<path d="M24.2577 35.1718C24.1577 35.1718 24.0589 35.125 23.9961 35.0372L19.0281 28.066C18.9588 27.9686 18.9492 27.8398 19.0044 27.7333C19.0595 27.6263 19.1698 27.5596 19.2896 27.5596H24.0974C24.2743 27.5596 24.4179 27.7032 24.4179 27.8801C24.4179 28.0571 24.2743 28.2007 24.0974 28.2007H19.9114L24.5186 34.6654C24.6211 34.8096 24.5878 35.0096 24.4436 35.1122C24.3872 35.1526 24.3224 35.1718 24.2577 35.1718Z" fill="#472B29"/>
<path d="M26.1813 31.2455C26.0807 31.2455 25.9813 31.1981 25.9185 31.1096L23.8352 28.1449C23.7332 28 23.7685 27.8 23.9134 27.6981C24.0582 27.5961 24.2582 27.6314 24.3602 27.7763L26.4435 30.741C26.5455 30.8859 26.5102 31.0859 26.3653 31.1878C26.3096 31.2269 26.2455 31.2455 26.1813 31.2455Z" fill="#472B29"/>
<path d="M14.322 30.7647H11.3572C11.2553 30.7647 11.1592 30.716 11.0989 30.6339C11.0386 30.5519 11.0207 30.4455 11.0515 30.348L12.5233 25.657H9.67452C9.4976 25.657 9.354 25.5134 9.354 25.3365C9.354 25.1596 9.4976 25.016 9.67452 25.016H12.9598C13.0618 25.016 13.1579 25.0647 13.2182 25.1468C13.2784 25.2288 13.2964 25.3352 13.2656 25.4327L11.7938 30.1237H14.322C14.499 30.1237 14.6426 30.2673 14.6426 30.4442C14.6426 30.6211 14.499 30.7647 14.322 30.7647Z" fill="#472B29"/>
<path d="M20.4914 16.0211C20.4619 16.0211 20.4318 16.0173 20.4017 16.0083C20.2318 15.959 20.1344 15.7814 20.1837 15.6109L21.4658 11.2038C21.5152 11.0333 21.6921 10.9359 21.8632 10.9859C22.0331 11.0352 22.1306 11.2128 22.0812 11.3833L20.7991 15.7904C20.7587 15.9301 20.6305 16.0211 20.4914 16.0211Z" fill="#472B29"/>
<path d="M15.5234 33.0084C15.494 33.0084 15.4632 33.0045 15.4331 32.9955C15.2632 32.9455 15.1657 32.768 15.2157 32.5975L17.9402 23.3026C17.9902 23.1327 18.1684 23.0366 18.3382 23.0853C18.5081 23.1353 18.6056 23.3128 18.5555 23.4834L15.8311 32.7782C15.7901 32.918 15.6619 33.0084 15.5234 33.0084Z" fill="#472B29"/>
<path d="M27.3016 35.4122C27.1952 35.4122 27.0914 35.3596 27.0305 35.2635L25.508 32.8596C25.4452 32.7609 25.4413 32.6359 25.4977 32.5333C25.5542 32.4308 25.6619 32.3673 25.7785 32.3673H27.7824C27.9593 32.3673 28.1029 32.5109 28.1029 32.6878C28.1029 32.8647 27.9593 33.0083 27.7824 33.0083H26.3619L27.5728 34.9199C27.6677 35.0692 27.6234 35.2673 27.4734 35.3622C27.4202 35.3962 27.3606 35.4122 27.3016 35.4122Z" fill="#472B29"/>
<path d="M30.3477 33.0083H29.0656C28.8887 33.0083 28.7451 32.8647 28.7451 32.6878C28.7451 32.5109 28.8887 32.3673 29.0656 32.3673H30.3477C30.5246 32.3673 30.6682 32.5109 30.6682 32.6878C30.6682 32.8647 30.5246 33.0083 30.3477 33.0083Z" fill="#472B29"/>
<path d="M33.7922 33.0084H32.2697C32.0928 33.0084 31.9492 32.8648 31.9492 32.6879C31.9492 32.511 32.0928 32.3674 32.2697 32.3674H33.5294L37.7243 11.3911C37.7589 11.2174 37.9243 11.1039 38.1013 11.1398C38.275 11.1744 38.3872 11.343 38.3525 11.5167L34.1057 32.7507C34.0762 32.9007 33.9448 33.0084 33.7922 33.0084Z" fill="#472B29"/>
<path d="M32.4309 19.2263C32.4091 19.2263 32.3873 19.2244 32.3649 19.2192C32.1912 19.1833 32.0803 19.0135 32.1168 18.8404L32.9181 14.9942C32.954 14.8205 33.12 14.7084 33.297 14.7462C33.4707 14.7821 33.5816 14.9519 33.5451 15.125L32.7438 18.9712C32.713 19.1225 32.5797 19.2263 32.4309 19.2263Z" fill="#472B29"/>
<path d="M38.1198 39.6589C38.0147 39.6589 37.9121 39.6076 37.8512 39.5127L33.5242 32.8621C33.4274 32.714 33.4697 32.5153 33.6178 32.4192C33.7659 32.3224 33.9646 32.3653 34.0607 32.5128L38.3877 39.1634C38.4845 39.3115 38.4422 39.5102 38.2941 39.6063C38.2403 39.6422 38.18 39.6589 38.1198 39.6589Z" fill="#472B29"/>
<path d="M25.7793 32.9282C25.7543 32.9282 25.7287 32.9256 25.703 32.9192C25.5306 32.8775 25.4255 32.7038 25.4671 32.532L27.7107 23.3173C27.7524 23.1448 27.9255 23.0384 28.0979 23.0814C28.2704 23.123 28.3755 23.2967 28.3338 23.4685L26.0902 32.6833C26.055 32.8301 25.9242 32.9282 25.7793 32.9282Z" fill="#472B29"/>
<path d="M24.098 28.2007C24.0704 28.2007 24.0429 28.1974 24.0147 28.1898C23.8435 28.1442 23.7422 27.968 23.7877 27.7974L24.9897 23.3103C25.0282 23.1699 25.1544 23.0724 25.3 23.0724H28.0244C28.2013 23.0724 28.3449 23.216 28.3449 23.393C28.3449 23.5699 28.2013 23.7135 28.0244 23.7135H25.5461L24.4076 27.9628C24.3692 28.1064 24.2397 28.2007 24.098 28.2007Z" fill="#472B29"/>
<path d="M19.2899 28.2007C19.2592 28.2007 19.2278 28.1962 19.197 28.1872C19.0271 28.1359 18.9316 27.9571 18.9835 27.7872L20.2201 23.7135H18.2483C18.0713 23.7135 17.9277 23.5699 17.9277 23.393C17.9277 23.216 18.0713 23.0724 18.2483 23.0724H20.6521C20.7534 23.0724 20.8489 23.1205 20.9098 23.2019C20.9701 23.2833 20.9887 23.3891 20.9592 23.4859L19.597 27.9731C19.5547 28.1115 19.4278 28.2007 19.2899 28.2007Z" fill="#472B29"/>
<path d="M17.5263 35.2519H14.882C14.7051 35.2519 14.5615 35.1083 14.5615 34.9314C14.5615 34.7545 14.7051 34.6109 14.882 34.6109H17.5263C17.7032 34.6109 17.8468 34.7545 17.8468 34.9314C17.8468 35.1083 17.7032 35.2519 17.5263 35.2519Z" fill="#472B29"/>
<path d="M22.5747 30.1237H20.6516C20.4746 30.1237 20.3311 29.9801 20.3311 29.8032C20.3311 29.6263 20.4746 29.4827 20.6516 29.4827H22.5747C22.7516 29.4827 22.8952 29.6263 22.8952 29.8032C22.8952 29.9801 22.7516 30.1237 22.5747 30.1237Z" fill="#472B29"/>
<path d="M15.6041 16.0211H12.7995C12.6226 16.0211 12.479 15.8775 12.479 15.7006C12.479 15.5237 12.6226 15.3801 12.7995 15.3801H15.6041C15.781 15.3801 15.9246 15.5237 15.9246 15.7006C15.9246 15.8775 15.781 16.0211 15.6041 16.0211Z" fill="#472B29"/>
<path d="M37.8794 35.0115C37.8685 35.0115 37.8576 35.0109 37.846 35.0083C37.7595 34.9904 37.7037 34.9051 37.7223 34.8186L40.0461 23.6808C40.064 23.5942 40.1486 23.5372 40.2358 23.5571C40.3224 23.575 40.3781 23.6603 40.3596 23.7468L38.0358 34.8846C38.0204 34.9596 37.9537 35.0115 37.8794 35.0115Z" fill="#472B29"/>
<path d="M40.5237 22.3512C40.5128 22.3512 40.5025 22.3506 40.4923 22.348C40.4051 22.3307 40.3487 22.2461 40.3666 22.1595L40.9275 19.355C40.9448 19.2679 41.0333 19.2108 41.116 19.2294C41.2032 19.2467 41.2596 19.3313 41.2416 19.4179L40.6807 22.2224C40.6653 22.2986 40.5987 22.3512 40.5237 22.3512Z" fill="#472B29"/>
</svg>
